<svg width="19" height="19" viewBox="0 0 19 19" fill="none" xmlns="http://www.w3.org/2000/svg">
<path d="M9.5 0C4.26163 0 0 4.26163 0 9.5C0 14.7384 4.26163 19 9.5 19C14.7384 19 19 14.7384 19 9.5C19 4.26163 14.7384 0 9.5 0ZM8.94336 4.66302C8.09651 4.62664 7.25822 4.50763 6.45776 4.31411C6.58561 4.01115 6.72433 3.72021 6.87393 3.4445C7.48769 2.31354 8.24118 1.51989 8.94336 1.23244V4.66302ZM8.94336 5.77718V8.94336H5.46653C5.51553 7.70759 5.72615 6.4808 6.07449 5.36491C6.99758 5.59743 7.96663 5.73818 8.94336 5.77718ZM8.94336 10.0566V13.2228C7.96663 13.2618 6.99758 13.4026 6.07449 13.6351C5.72615 12.5192 5.51553 11.2924 5.46653 10.0566H8.94336ZM8.94336 14.337V17.7676C8.24118 17.4801 7.48769 16.6865 6.87393 15.5555C6.72433 15.2798 6.58561 14.9889 6.45776 14.6859C7.25822 14.4924 8.09637 14.3734 8.94336 14.337ZM10.0566 14.337C10.9035 14.3734 11.7418 14.4924 12.5422 14.6859C12.4144 14.9889 12.2757 15.2798 12.1261 15.5555C11.5123 16.6865 10.7588 17.4801 10.0566 17.7676V14.337ZM10.0566 13.2228V10.0566H13.5335C13.4845 11.2924 13.2738 12.5192 12.9255 13.6351C12.0024 13.4026 11.0334 13.2618 10.0566 13.2228ZM10.0566 8.94336V5.77718C11.0334 5.73818 12.0024 5.59743 12.9255 5.36491C13.2738 6.4808 13.4845 7.70759 13.5335 8.94336H10.0566ZM10.0566 4.66302V1.23244C10.7588 1.51989 11.5123 2.31354 12.1261 3.4445C12.2757 3.72021 12.4144 4.01115 12.5422 4.31411C11.7418 4.50763 10.9035 4.62664 10.0566 4.66302ZM13.1045 2.91352C12.8258 2.39979 12.523 1.94694 12.2038 1.56062C13.3168 1.9407 14.3249 2.54881 15.1728 3.32868C14.6892 3.58772 14.1681 3.8127 13.6199 4.00071C13.4643 3.62295 13.2924 3.25954 13.1045 2.91352ZM5.89546 2.91352C5.7076 3.25954 5.53568 3.62295 5.38013 4.00071C4.8319 3.8127 4.31078 3.58758 3.82719 3.32868C4.67506 2.54881 5.68324 1.9407 6.79623 1.56062C6.47704 1.94694 6.17436 2.39964 5.89546 2.91352ZM5.00353 5.04702C4.6236 6.2625 4.40022 7.58756 4.35209 8.94336H1.13227C1.25143 7.13413 1.94621 5.47958 3.03572 4.16248C3.64034 4.50922 4.30251 4.80581 5.00353 5.04702ZM4.35209 10.0566C4.40022 11.4126 4.6236 12.7375 5.00353 13.953C4.30251 14.1942 3.64034 14.4908 3.03572 14.8375C1.94621 13.5204 1.25143 11.8659 1.13227 10.0566H4.35209ZM5.38013 14.9993C5.53568 15.3771 5.7076 15.7405 5.89546 16.0865C6.17436 16.6002 6.47704 17.0531 6.79623 17.4394C5.68324 17.0593 4.67506 16.4512 3.82734 15.6713C4.31063 15.4124 4.8319 15.1873 5.38013 14.9993ZM13.1045 16.0865C13.2924 15.7405 13.4643 15.3771 13.6199 14.9993C14.1681 15.1873 14.6892 15.4124 15.1728 15.6713C14.3249 16.4512 13.3168 17.0593 12.2038 17.4394C12.523 17.0531 12.8256 16.6004 13.1045 16.0865ZM13.9965 13.953C14.3764 12.7375 14.5998 11.4124 14.6479 10.0566H17.8677C17.7486 11.8659 17.0538 13.5204 15.9643 14.8375C15.3597 14.4908 14.6975 14.1942 13.9965 13.953ZM14.6479 8.94336C14.5998 7.58742 14.3764 6.2625 13.9965 5.04702C14.6975 4.80581 15.3597 4.50922 15.9643 4.16248C17.0538 5.47958 17.7486 7.13413 17.8677 8.94336H14.6479Z" fill="black"/>
</svg>