<svg xmlns="http://www.w3.org/2000/svg"><symbol id="button-header-global" viewBox="0 0 19 19"><path d="M9.5 0C4.262 0 0 4.262 0 9.5S4.262 19 9.5 19 19 14.738 19 9.5 14.738 0 9.5 0zm-.557 4.663a12.988 12.988 0 0 1-2.485-.349c.128-.303.266-.594.416-.87.614-1.13 1.367-1.924 2.07-2.212v3.431zm0 1.114v3.166H5.467a13.99 13.99 0 0 1 .607-3.578c.924.232 1.893.373 2.87.412zm0 4.28v3.166c-.976.039-1.945.18-2.869.412a13.99 13.99 0 0 1-.607-3.578h3.476zm0 4.28v3.43c-.702-.287-1.455-1.08-2.07-2.211a9.87 9.87 0 0 1-.415-.87 12.99 12.99 0 0 1 2.485-.349zm1.114 0a12.99 12.99 0 0 1 2.485.349 9.855 9.855 0 0 1-.416.87c-.614 1.13-1.367 1.924-2.07 2.212v-3.431zm0-1.114v-3.166h3.476a13.992 13.992 0 0 1-.607 3.578 14.096 14.096 0 0 0-2.87-.412zm0-4.28V5.777c.976-.039 1.945-.18 2.868-.412.349 1.116.56 2.343.608 3.578h-3.476zm0-4.28v-3.43c.702.287 1.455 1.08 2.07 2.212.149.275.287.566.415.87-.8.193-1.639.312-2.485.348zm3.047-1.75a8.448 8.448 0 0 0-.9-1.352 8.397 8.397 0 0 1 2.969 1.768A10.52 10.52 0 0 1 13.62 4a11.286 11.286 0 0 0-.515-1.087zm-7.209 0c-.187.347-.36.71-.515 1.088a10.534 10.534 0 0 1-1.553-.672 8.397 8.397 0 0 1 2.97-1.768c-.32.386-.623.839-.902 1.353zm-.891 2.134a14.908 14.908 0 0 0-.652 3.896h-3.22a8.348 8.348 0 0 1 1.904-4.78 11.45 11.45 0 0 0 1.968.884zm-.652 5.01a14.9 14.9 0 0 0 .652 3.896c-.701.241-1.364.538-1.968.885a8.347 8.347 0 0 1-1.904-4.781h3.22zm1.028 4.942c.156.378.328.742.515 1.088.28.513.582.966.901 1.352a8.395 8.395 0 0 1-2.969-1.768A10.517 10.517 0 0 1 5.38 15zm7.724 1.088c.188-.346.36-.71.516-1.088.548.188 1.07.413 1.553.672a8.397 8.397 0 0 1-2.97 1.768c.32-.386.623-.839.902-1.352zm.893-2.134c.38-1.215.603-2.54.65-3.896h3.22a8.347 8.347 0 0 1-1.903 4.78 11.452 11.452 0 0 0-1.968-.884zm.65-5.01a14.907 14.907 0 0 0-.65-3.896 11.45 11.45 0 0 0 1.967-.885 8.347 8.347 0 0 1 1.904 4.781h-3.22z"/></symbol><symbol id="button-header-menu" viewBox="0 0 16 16"><circle cx="8" cy="8" r="8"/><path stroke="#fff" stroke-linecap="round" stroke-width="2" d="M4 7l4 3 4-3"/></symbol><symbol id="button-header-person" viewBox="0 0 19 19"><path d="M9.5 1.583a4.36 4.36 0 0 1 4.354 4.354c0 1.155-.382 2.53-2.571 4.426 3.254 1.552 5.226 4.159 5.923 7.053H1.78c.756-3.316 3.17-5.858 5.952-7.037-1.267-1.02-2.586-2.631-2.586-4.441A4.36 4.36 0 0 1 9.5 1.582zM9.5 0a5.937 5.937 0 0 0-5.938 5.938c0 1.592.631 3.035 1.652 4.102C1.232 12.422 0 16.77 0 19h19c0-2.21-1.312-6.555-5.217-8.957a5.913 5.913 0 0 0 1.655-4.105A5.937 5.937 0 0 0 9.5 0z"/></symbol><symbol id="button-header-search" viewBox="0 0 21 19"><path stroke="#000" stroke-width="2" d="M16.052 8.36c0 4.045-3.351 7.358-7.526 7.358S1 12.405 1 8.36C1 4.313 4.35 1 8.526 1c4.175 0 7.526 3.313 7.526 7.36z"/><path stroke="#000" stroke-width="2" d="M0-1h7.5" transform="scale(1.00982 .99008) rotate(45 -10.005 23.248)"/></symbol></svg>