<svg width="19" height="19" viewBox="0 0 19 19" fill="none" xmlns="http://www.w3.org/2000/svg">
<path d="M9.5 1.58333C11.9003 1.58333 13.8542 3.53638 13.8542 5.9375C13.8542 7.09175 13.4718 8.46767 11.2828 10.3629C14.5374 11.9154 16.5094 14.5215 17.2061 17.4159H1.77967C2.53571 14.1004 4.95029 11.5583 7.73221 10.3787C6.46475 9.35987 5.14583 7.74804 5.14583 5.9375C5.14583 3.53638 7.09967 1.58333 9.5 1.58333ZM9.5 0C6.22092 0 3.5625 2.65762 3.5625 5.9375C3.5625 7.53033 4.19346 8.97275 5.21392 10.0399C1.23183 12.422 0 16.7699 0 19H19C19 16.7905 17.6882 12.445 13.7829 10.0431C14.8057 8.97592 15.4375 7.53192 15.4375 5.9375C15.4375 2.65762 12.7791 0 9.5 0Z" fill="black"/>
</svg>
